<?xml version="1.0" encoding="UTF-8"?>
<!DOCTYPE svg PUBLIC "-//W3C//DTD SVG 1.1//EN" "http://www.w3.org/Graphics/SVG/1.1/DTD/svg11.dtd">
<!-- Creator: CorelDRAW X7 -->
<svg xmlns="http://www.w3.org/2000/svg" xml:space="preserve" width="880px" height="210px" version="1.1" style="shape-rendering:geometricPrecision; text-rendering:geometricPrecision; image-rendering:optimizeQuality; fill-rule:evenodd; clip-rule:evenodd"
viewBox="0 0 880 210"
 xmlns:xlink="http://www.w3.org/1999/xlink">
 <defs>
  <style type="text/css">
   <![CDATA[
    .fil0 {fill:#F0D8B9}
    .fil1 {fill:white}
   ]]>
  </style>
 </defs>
 <g id="Слой_x0020_1">
  <metadata id="CorelCorpID_0Corel-Layer"/>
  <g id="_2563474567632">
   <path class="fil0" d="M432 32l0 73c0,24 -15,9 -15,21l47 0c-1,-11 -12,-1 -15,-13 -2,-8 1,-75 -2,-83 3,1 2,0 4,4 4,9 42,75 43,79l16 0c1,-3 47,-80 50,-82 0,10 -2,16 -1,26 0,10 0,48 -1,55 -3,15 -14,3 -14,14l53 0c-1,-10 -8,-2 -13,-9 -4,-6 -3,-89 -1,-94 5,-8 13,0 14,-10l-41 0c-3,0 -4,2 -5,4l-42 70c-2,4 -1,4 -4,5 -2,-5 -13,-23 -16,-30 -2,-4 -4,-6 -5,-10 -4,-7 -8,-13 -12,-20 -1,-4 -3,-6 -5,-10 -7,-13 2,-9 -50,-9 0,8 3,3 10,7 4,2 5,6 5,12z"/>
   <path class="fil0" d="M614 18c8,0 14,2 14,11l0 81c0,9 -6,11 -14,11l0 5 116 0 3 -29 -14 0c-2,6 -7,15 -12,18 -9,6 -43,4 -54,4l0 -47 32 0c6,0 9,6 10,11l14 0 0 -31 -14 0c-1,4 -3,9 -8,11 -6,1 -27,1 -34,1l0 -43 46 0c6,0 9,2 12,6 2,2 6,8 7,11l13 0 0 -25 -117 0 0 5z"/>
   <path class="fil0" d="M152 18c8,0 14,2 14,11l0 81c0,9 -6,11 -14,11l0 5 116 0 3 -29 -14 0c-2,6 -7,15 -12,18 -9,6 -43,4 -54,4l0 -47 32 0c6,0 9,6 11,11l13 0 0 -31 -13 0c-4,15 -22,12 -43,12l0 -43 46 0c10,0 17,11 19,17l13 0 0 -25 -117 0 0 5z"/>
   <path class="fil0" d="M331 71l0 -50c17,0 55,-4 55,21 0,8 0,14 -7,20 -10,9 -33,9 -48,9zm-39 -53c3,0 7,1 9,2 3,2 5,4 5,9l0 81c0,9 -6,11 -14,11l0 5 55 0 0 -5c-21,0 -16,-10 -16,-43 21,0 44,2 63,-8 15,-8 18,-16 18,-30 0,-19 -27,-27 -47,-27l-73 0 0 5z"/>
   <path class="fil0" d="M803 127c21,0 40,1 61,-4l0 -24 -14 0c-2,8 -10,15 -17,18 -13,5 -40,4 -51,-13 -9,-13 -8,-25 -8,-40 0,-22 16,-44 38,-44 10,0 19,-1 28,5 4,3 8,9 10,14l14 0c0,-27 3,-24 -14,-26 -14,-2 -25,-1 -39,-1 -18,0 -35,7 -44,15 -15,12 -17,22 -20,40 -2,13 4,34 14,44 9,9 25,16 42,16z"/>
   <path class="fil0" d="M22 18c7,0 14,2 14,11l0 81c0,9 -6,11 -14,11l0 5 57 0 0 -5c-8,0 -18,-1 -18,-11l0 -89 40 0c12,0 18,11 21,22l13 0 0 -30 -113 0 0 5z"/>
   <path class="fil1" d="M44 196l-9 0 0 -8 7 0c3,0 10,0 10,4 0,4 -5,4 -8,4zm-19 7c11,0 37,3 37,-10 0,-15 -17,-12 -27,-12l0 -8 23 0 0 -7 -33 0 0 37z"/>
   <path class="fil1" d="M102 203c11,0 8,2 17,-11 2,-2 6,-9 9,-11l0 22 9 0 0 -37 -10 0c-1,3 -14,20 -16,23l0 -23 -9 0 0 37z"/>
   <polygon class="fil1" points="532,203 563,203 563,211 571,211 571,196 567,196 567,166 558,166 558,196 541,196 541,166 532,166 "/>
   <polygon class="fil1" points="329,203 362,203 362,196 338,196 338,188 360,188 360,181 338,181 338,173 362,173 362,166 329,166 "/>
   <polygon class="fil1" points="610,203 643,203 643,196 619,196 619,188 641,188 641,181 619,181 619,173 643,173 643,166 610,166 "/>
   <polygon class="fil1" points="684,203 693,203 693,188 710,188 710,203 719,203 719,166 710,166 710,181 693,181 693,166 684,166 "/>
   <polygon class="fil1" points="251,203 260,203 260,188 277,188 277,203 286,203 286,166 277,166 277,181 260,181 260,166 251,166 "/>
   <path class="fil1" d="M847 182l-6 0 0 -9 7 0c5,0 7,2 8,5 -2,3 -5,4 -9,4zm-15 21l9 0 0 -14c7,0 25,2 25,-11 0,-16 -18,-12 -34,-12l0 37z"/>
   <path class="fil1" d="M402 180l0 8c0,14 22,19 32,11 3,-2 4,-5 6,-9 -2,-1 -7,-2 -9,-2 -11,20 -27,-2 -18,-12 5,-6 15,-5 17,2 5,0 5,0 9,-1 -2,-18 -37,-15 -37,3z"/>
   <path class="fil1" d="M178 175c2,1 5,2 9,2 1,-7 11,-7 13,0 -3,3 -5,4 -9,4l0 5c15,0 10,11 3,11 -5,0 -8,-1 -8,-5 -4,0 -7,1 -9,2 5,10 7,10 20,10 3,0 7,-1 9,-3 4,-3 6,-9 2,-15 -2,-2 -2,-2 -5,-3 2,-4 6,-3 6,-10 0,-9 -28,-14 -31,2z"/>
   <polygon class="fil1" points="758,173 772,173 772,203 781,203 781,173 794,173 794,166 758,166 "/>
  </g>
 </g>
</svg>
