<?xml version="1.0" encoding="UTF-8"?>
<!DOCTYPE svg PUBLIC "-//W3C//DTD SVG 1.1//EN" "http://www.w3.org/Graphics/SVG/1.1/DTD/svg11.dtd">
<!-- Creator: CorelDRAW X7 -->
<svg xmlns="http://www.w3.org/2000/svg" xml:space="preserve" width="32px" height="32px" version="1.1" style="shape-rendering:geometricPrecision; text-rendering:geometricPrecision; image-rendering:optimizeQuality; fill-rule:evenodd; clip-rule:evenodd"
viewBox="0 0 32 32"
 xmlns:xlink="http://www.w3.org/1999/xlink">
 <defs>
  <style type="text/css">
   <![CDATA[
    .str0 {stroke:#2B2A29;stroke-width:0.566934}
    .fil1 {fill:#EF7F1A}
    .fil0 {fill:#034047}
   ]]>
  </style>
 </defs>
 <g id="Слой_x0020_1">
  <metadata id="CorelCorpID_0Corel-Layer"/>
  <rect class="fil0 str0" x="-1" y="-1" width="34.0367" height="32.8895"/>
  <g id="_3063113178688">
   <path class="fil1" d="M22 8c1,0 2,0 3,0 1,-1 2,-1 3,-3l1 0c0,0 0,0 0,-1 1,0 1,0 1,-1 0,0 1,-1 1,-2l-30 1 0 6c7,0 14,0 21,0z"/>
   <path class="fil1" d="M1 30l8 0c1,1 3,0 3,0 1,0 1,0 1,0 1,0 1,-1 2,-1 0,-1 1,-1 1,-1 1,-1 1,-2 2,-3 0,-1 0,-1 0,-1l-17 0 0 6z"/>
   <path class="fil1" d="M1 19c2,0 6,0 7,0 1,0 9,0 9,0 1,0 2,0 2,-1 2,0 4,-2 5,-5 1,0 1,0 0,0l-23 0c0,0 0,0 0,0l0 6z"/>
  </g>
 </g>
</svg>
