<?xml version="1.0" encoding="UTF-8"?>
<!DOCTYPE svg PUBLIC "-//W3C//DTD SVG 1.1//EN" "http://www.w3.org/Graphics/SVG/1.1/DTD/svg11.dtd">
<!-- Creator: CorelDRAW X7 -->
<svg xmlns="http://www.w3.org/2000/svg" xml:space="preserve" width="743px" height="150px" version="1.1" style="shape-rendering:geometricPrecision; text-rendering:geometricPrecision; image-rendering:optimizeQuality; fill-rule:evenodd; clip-rule:evenodd"
viewBox="0 0 743 150"
 xmlns:xlink="http://www.w3.org/1999/xlink">
 <defs>
  <style type="text/css">
   <![CDATA[
    .fil0 {fill:#E31E24}
   ]]>
  </style>
 </defs>
 <g id="Слой_x0020_1">
  <metadata id="CorelCorpID_0Corel-Layer"/>
  <g id="_1585893317456">
   <g id="_1720742429920">
    <path class="fil0" d="M713 18c3,0 5,0 8,-1 4,-1 7,-2 11,-4l2 -2c0,0 0,0 0,0 1,-1 2,-3 3,-4 1,0 2,-2 2,-3l-87 0 0 14c20,0 40,0 61,0l0 0z"/>
    <path class="fil0" d="M652 65l24 0c3,0 7,0 9,-1 1,0 1,0 2,0 2,-1 4,-1 5,-2 1,-1 2,-2 3,-2 2,-2 4,-4 6,-7 1,-1 1,-1 -1,-1l-48 0 0 13 0 0z"/>
    <path class="fil0" d="M652 41c5,0 18,0 20,0 4,0 25,1 28,0 2,0 4,0 5,-1 6,-2 11,-5 14,-11 2,-1 2,-1 0,-1l-67 0c0,0 0,0 0,0l0 13 0 0z"/>
   </g>
   <g id="_2563474567632">
    <path class="fil0" d="M312 19l0 54c0,18 -11,7 -11,16l35 0c0,-8 -9,-1 -11,-10 -1,-6 1,-56 -1,-62 2,1 1,0 3,3 3,7 31,56 32,59l12 0c1,-2 35,-60 38,-61 0,7 -2,12 -1,19 0,8 0,36 -1,42 -2,11 -10,2 -10,10l39 0c0,-7 -6,-1 -9,-7 -4,-4 -3,-67 -1,-70 4,-6 10,0 10,-8l-31 0c-2,0 -2,2 -3,3l-32 53c-1,3 -1,3 -3,4 -1,-4 -10,-18 -12,-23 -1,-3 -3,-4 -4,-8 -3,-5 -6,-9 -9,-14 0,-4 -2,-5 -3,-8 -6,-10 1,-7 -38,-7 0,6 2,3 8,5 3,2 3,5 3,10l0 0 0 0z"/>
    <path class="fil0" d="M449 8c6,0 11,1 11,8l0 61c0,7 -5,8 -11,8l0 4 87 0 3 -22 -11 0c-1,5 -5,12 -9,14 -7,4 -32,3 -40,3l0 -35 24 0c4,0 6,4 7,8l11 0 0 -24 -11 0c-1,4 -2,7 -6,9 -5,1 -20,1 -25,1l0 -33 34 0c5,0 7,2 9,5 2,1 5,6 5,8l10 0 0 -19 -88 0 0 4 0 0 0 0z"/>
    <path class="fil0" d="M102 8c6,0 10,1 10,8l0 61c0,7 -4,8 -10,8l0 4 87 0 2 -22 -10 0c-2,5 -5,12 -9,14 -7,4 -33,3 -41,3l0 -35 24 0c5,0 7,4 8,8l10 0 0 -24 -10 0c-2,12 -16,10 -32,10l0 -33 35 0c7,0 13,9 14,13l10 0 0 -19 -88 0 0 4 0 0 0 0z"/>
    <path class="fil0" d="M236 48l0 -38c13,0 42,-3 42,16 0,6 0,11 -6,15 -7,7 -24,7 -36,7l0 0zm-29 -40c2,0 5,1 7,1 2,2 4,4 4,7l0 61c0,7 -5,8 -11,8l0 4 41 0 0 -4c-15,0 -12,-7 -12,-32 16,0 34,2 48,-6 11,-6 13,-12 13,-22 0,-15 -20,-21 -35,-21l-55 0 0 4 0 0 0 0z"/>
    <path class="fil0" d="M591 90c16,0 30,1 46,-3l0 -18 -11 0c-1,6 -7,11 -12,13 -10,4 -30,3 -39,-9 -6,-10 -6,-19 -6,-30 0,-17 13,-34 29,-34 8,0 14,0 21,4 3,2 6,7 7,11l11 0c0,-21 2,-18 -11,-20 -10,-1 -18,-1 -29,-1 -13,0 -26,6 -33,12 -11,9 -13,16 -15,30 -1,10 3,25 11,33 6,7 18,12 31,12l0 0 0 0z"/>
    <path class="fil0" d="M4 8c6,0 11,1 11,8l0 61c0,7 -5,8 -11,8l0 4 43 0 0 -4c-6,0 -13,0 -13,-8l0 -67 30 0c9,0 13,9 15,17l10 0 0 -23 -85 0 0 4 0 0 0 0z"/>
    <path class="fil0" d="M21 142l-7 0 0 -6 5 0c3,0 8,0 8,3 0,3 -4,3 -6,3l0 0 0 0zm-15 5c9,0 28,2 28,-7 0,-12 -12,-10 -20,-10l0 -6 17 0 0 -5 -25 0 0 28 0 0z"/>
    <path class="fil0" d="M64 147c9,0 6,1 13,-8 2,-2 5,-7 7,-9l0 17 7 0 0 -28 -8 0c-1,2 -10,15 -12,17l0 -17 -7 0 0 28 0 0 0 0z"/>
    <polygon class="fil0" points="387,147 411,147 411,153 417,153 417,142 414,142 414,119 407,119 407,142 394,142 394,119 387,119 "/>
    <polygon class="fil0" points="235,147 260,147 260,142 242,142 242,136 258,136 258,130 242,130 242,124 260,124 260,119 235,119 "/>
    <polygon class="fil0" points="446,147 471,147 471,142 453,142 453,136 469,136 469,130 453,130 453,124 471,124 471,119 446,119 "/>
    <polygon class="fil0" points="502,147 509,147 509,136 521,136 521,147 528,147 528,119 521,119 521,130 509,130 509,119 502,119 "/>
    <polygon class="fil0" points="176,147 183,147 183,136 196,136 196,147 203,147 203,119 196,119 196,130 183,130 183,119 176,119 "/>
    <path class="fil0" d="M624 131l-4 0 0 -7 5 0c4,0 5,2 6,4 -1,2 -4,3 -7,3l0 0zm-11 16l7 0 0 -11c5,0 19,2 19,-8 0,-12 -14,-9 -26,-9l0 28 0 0z"/>
    <path class="fil0" d="M290 130l0 6c0,10 16,14 24,8 2,-2 3,-4 4,-7 -1,-1 -5,-1 -6,-1 -9,15 -21,-2 -14,-9 4,-5 11,-4 13,1 4,0 4,0 7,-1 -2,-13 -28,-11 -28,3l0 0z"/>
    <path class="fil0" d="M121 126c2,1 4,1 7,1 1,-5 9,-5 10,0 -2,3 -4,3 -7,3l0 4c12,0 8,8 2,8 -3,0 -6,0 -6,-3 -2,0 -5,1 -6,1 4,8 5,8 15,8 2,0 5,-1 7,-2 2,-3 4,-7 1,-12 -1,-1 -1,-1 -4,-2 2,-3 5,-2 5,-8 0,-6 -21,-10 -24,2l0 0 0 0z"/>
    <polygon class="fil0" points="557,124 568,124 568,147 575,147 575,124 584,124 584,119 557,119 "/>
   </g>
  </g>
 </g>
</svg>
