<?xml version="1.0" encoding="UTF-8"?>
<!DOCTYPE svg PUBLIC "-//W3C//DTD SVG 1.1//EN" "http://www.w3.org/Graphics/SVG/1.1/DTD/svg11.dtd">
<!-- Creator: CorelDRAW X7 -->
<svg xmlns="http://www.w3.org/2000/svg" xml:space="preserve" width="2480px" height="3508px" version="1.1" style="shape-rendering:geometricPrecision; text-rendering:geometricPrecision; image-rendering:optimizeQuality; fill-rule:evenodd; clip-rule:evenodd"
viewBox="0 0 2480 3507"
 xmlns:xlink="http://www.w3.org/1999/xlink">
 <defs>
  <style type="text/css">
   <![CDATA[
    .fil0 {fill:#FEFEFE}
   ]]>
  </style>
 </defs>
 <g id="Слой_x0020_1">
  <metadata id="CorelCorpID_0Corel-Layer"/>
  <g id="_1720742429920">
   <path class="fil0" d="M2879 1523c13,0 24,0 36,-3 16,-3 30,-9 44,-19l9 -7c0,0 1,-1 1,-1 4,-4 8,-9 12,-13 2,-2 8,-10 9,-13l-364 0 0 56c84,0 168,0 253,0z"/>
   <path class="fil0" d="M2626 1721l101 0c12,0 27,-1 38,-4 2,-1 5,-1 8,-2 6,-3 15,-6 20,-9 4,-3 9,-6 13,-9 9,-7 18,-16 25,-27 5,-6 6,-6 -3,-6l-202 0 0 57z"/>
   <path class="fil0" d="M2626 1621c21,0 77,0 83,0 17,0 107,1 117,-1 7,-1 16,-2 23,-5 23,-8 43,-21 58,-44 5,-6 6,-6 -2,-6l-278 0c0,0 -1,0 -1,0l0 56z"/>
  </g>
 </g>
 <g id="Слой_x0020_1_0">
  <metadata id="CorelCorpID_1Corel-Layer"/>
  <g id="_2563474567632">
   <path class="fil0" d="M1215 1526l0 228c0,75 -47,28 -47,65l147 0c-3,-34 -38,-3 -47,-40 -6,-25 3,-235 -6,-260 9,3 6,0 12,13 13,28 132,234 135,247l50 0c3,-10 147,-250 156,-257 0,32 -6,50 -3,82 0,31 0,150 -3,172 -10,46 -44,9 -44,43l166 0c-4,-31 -25,-6 -41,-28 -13,-19 -9,-278 -3,-294 15,-24 40,0 44,-31l-129 0c-9,0 -12,7 -15,13l-131 218c-7,13 -4,13 -13,16 -6,-16 -41,-72 -50,-94 -6,-12 -12,-18 -16,-31 -12,-22 -25,-41 -37,-62 -3,-13 -9,-19 -16,-32 -22,-40 7,-28 -156,-28 0,25 10,10 31,22 13,6 16,19 16,38l0 0z"/>
   <path class="fil0" d="M1784 1482c25,0 43,6 43,34l0 253c0,28 -18,35 -43,35l0 15 362 0 10 -90 -44 0c-6,18 -22,47 -38,56 -28,19 -134,12 -168,12l0 -146 100 0c18,0 28,18 31,34l44 0 0 -97 -44 0c-3,13 -10,28 -25,34 -19,4 -85,4 -106,4l0 -135 143 0c19,0 28,6 38,19 6,6 19,25 22,34l40 0 0 -78 -365 0 0 16 0 0z"/>
   <path class="fil0" d="M340 1482c25,0 44,6 44,34l0 253c0,28 -19,35 -44,35l0 15 363 0 9 -90 -44 0c-6,18 -22,47 -37,56 -28,19 -135,12 -169,12l0 -146 100 0c19,0 28,18 34,34l41 0 0 -97 -41 0c-12,47 -68,38 -134,38l0 -135 144 0c31,0 53,35 59,53l41 0 0 -78 -366 0 0 16 0 0z"/>
   <path class="fil0" d="M899 1647l0 -156c54,0 172,-12 172,66 0,25 0,44 -22,62 -31,28 -103,28 -150,28l0 0zm-121 -165c9,0 21,3 28,6 9,6 15,13 15,28l0 253c0,28 -18,35 -43,35l0 15 171 0 0 -15c-65,0 -50,-32 -50,-135 66,0 138,7 197,-25 47,-25 57,-50 57,-93 0,-60 -85,-85 -147,-85l-228 0 0 16 0 0z"/>
   <path class="fil0" d="M2374 1822c66,0 125,4 191,-12l0 -75 -44 0c-6,25 -31,47 -53,56 -41,16 -125,13 -159,-40 -29,-41 -25,-79 -25,-125 0,-69 50,-138 118,-138 32,0 60,-3 88,16 12,9 25,28 31,43l44 0c0,-84 9,-74 -44,-81 -44,-6 -78,-3 -122,-3 -56,0 -109,22 -137,47 -47,37 -53,69 -63,125 -6,41 13,106 44,137 28,29 78,50 131,50l0 0z"/>
   <path class="fil0" d="M-66 1482c22,0 44,6 44,34l0 253c0,28 -19,35 -44,35l0 15 178 0 0 -15c-25,0 -56,-3 -56,-35l0 -278 125 0c37,0 56,35 65,69l41 0 0 -94 -353 0 0 16 0 0z"/>
   <path class="fil0" d="M3 2038l-28 0 0 -25 21 0c10,0 32,0 32,13 0,12 -16,12 -25,12l0 0zm-60 22c35,0 116,9 116,-31 0,-47 -53,-38 -84,-38l0 -25 71 0 0 -22 -103 0 0 116 0 0z"/>
   <path class="fil0" d="M184 2060c34,0 25,6 53,-34 6,-7 19,-29 28,-35l0 69 28 0 0 -116 -31 0c-3,10 -44,63 -50,72l0 -72 -28 0 0 116 0 0z"/>
   <polygon class="fil0" points="1527,2060 1624,2060 1624,2085 1649,2085 1649,2038 1637,2038 1637,1944 1609,1944 1609,2038 1556,2038 1556,1944 1527,1944 "/>
   <polygon class="fil0" points="893,2060 996,2060 996,2038 921,2038 921,2013 990,2013 990,1991 921,1991 921,1966 996,1966 996,1944 893,1944 "/>
   <polygon class="fil0" points="1771,2060 1874,2060 1874,2038 1799,2038 1799,2013 1868,2013 1868,1991 1799,1991 1799,1966 1874,1966 1874,1944 1771,1944 "/>
   <polygon class="fil0" points="2002,2060 2031,2060 2031,2013 2084,2013 2084,2060 2112,2060 2112,1944 2084,1944 2084,1991 2031,1991 2031,1944 2002,1944 "/>
   <polygon class="fil0" points="649,2060 678,2060 678,2013 731,2013 731,2060 759,2060 759,1944 731,1944 731,1991 678,1991 678,1944 649,1944 "/>
   <path class="fil0" d="M2512 1994l-19 0 0 -28 22 0c15,0 22,6 25,16 -6,9 -16,12 -28,12l0 0zm-47 66l28 0 0 -44c22,0 78,6 78,-34 0,-50 -56,-38 -106,-38l0 116 0 0z"/>
   <path class="fil0" d="M1121 1988l0 25c0,44 69,59 100,34 10,-6 13,-15 19,-28 -6,-3 -22,-6 -28,-6 -34,63 -84,-6 -56,-37 15,-19 47,-16 53,6 15,0 15,0 28,-3 -6,-57 -116,-47 -116,9z"/>
   <path class="fil0" d="M421 1972c7,4 16,7 28,7 4,-22 35,-22 41,0 -9,9 -16,12 -28,12l0 16c47,0 31,34 9,34 -15,0 -25,-3 -25,-15 -12,0 -22,3 -28,6 16,31 22,31 63,31 9,0 22,-3 28,-9 12,-10 19,-28 6,-47 -6,-6 -6,-6 -16,-10 7,-12 19,-9 19,-31 0,-28 -87,-44 -97,6l0 0z"/>
   <polygon class="fil0" points="2234,1966 2277,1966 2277,2060 2305,2060 2305,1966 2346,1966 2346,1944 2234,1944 "/>
  </g>
 </g>
</svg>
