<?xml version="1.0" encoding="UTF-8"?>
<!DOCTYPE svg PUBLIC "-//W3C//DTD SVG 1.1//EN" "http://www.w3.org/Graphics/SVG/1.1/DTD/svg11.dtd">
<!-- Creator: CorelDRAW X7 -->
<svg xmlns="http://www.w3.org/2000/svg" xml:space="preserve" width="2480px" height="3508px" version="1.1" style="shape-rendering:geometricPrecision; text-rendering:geometricPrecision; image-rendering:optimizeQuality; fill-rule:evenodd; clip-rule:evenodd"
viewBox="0 0 2480 3507"
 xmlns:xlink="http://www.w3.org/1999/xlink">
 <defs>
  <style type="text/css">
   <![CDATA[
    .str0 {stroke:#2B2A29;stroke-width:1.77143}
    .fil0 {fill:#09363D}
    .fil1 {fill:#EB661F}
   ]]>
  </style>
 </defs>
 <g id="Слой_x0020_1">
  <metadata id="CorelCorpID_0Corel-Layer"/>
  <rect class="fil0 str0" x="1181" y="1697" width="116" height="111"/>
  <path class="fil1" d="M1265 1729c9,-3 11,-10 14,-19l-86 0 0 19c22,0 50,0 72,0z"/>
  <path class="fil1" d="M1193 1797c6,0 13,0 26,0 8,-3 13,-11 15,-18l-41 0 0 18 0 0z"/>
  <path class="fil1" d="M1193 1763c13,0 22,0 50,0 9,-3 12,-11 15,-19 -32,0 -46,0 -65,0l0 19z"/>
 </g>
</svg>
